<mxfile host="Electron" modified="2024-01-31T09:31:19.022Z" agent="Mozilla/5.0 (Windows NT 10.0; Win64; x64) AppleWebKit/537.36 (KHTML, like Gecko) draw.io/23.0.2 Chrome/120.0.6099.109 Electron/28.1.0 Safari/537.36" etag="JEuDbkfvjZXRwBLr7SaG" version="23.0.2" type="device">
  <diagram name="第 1 页" id="G9HiK0Jmhv0NwcfN8y1G">
    <mxGraphModel dx="868" dy="1198" grid="1" gridSize="10" guides="1" tooltips="1" connect="1" arrows="1" fold="1" page="1" pageScale="1" pageWidth="827" pageHeight="1169" math="1" shadow="0">
      <root>
        <mxCell id="0" />
        <mxCell id="1" parent="0" />
        <mxCell id="UqnrEGF3hzRNaSd5A-KL-24" style="edgeStyle=none;shape=connector;rounded=0;orthogonalLoop=1;jettySize=auto;html=1;exitX=0;exitY=1;exitDx=0;exitDy=0;entryX=0.5;entryY=0;entryDx=0;entryDy=0;labelBackgroundColor=default;strokeColor=default;align=center;verticalAlign=middle;fontFamily=Helvetica;fontSize=11;fontColor=default;endArrow=none;endFill=0;" edge="1" parent="1" source="UqnrEGF3hzRNaSd5A-KL-25">
          <mxGeometry relative="1" as="geometry">
            <mxPoint x="1090" y="147" as="targetPoint" />
          </mxGeometry>
        </mxCell>
        <mxCell id="UqnrEGF3hzRNaSd5A-KL-25" value="B" style="ellipse;whiteSpace=wrap;html=1;fontFamily=Times New Roman;fontSize=19;fontColor=default;" vertex="1" parent="1">
          <mxGeometry x="1130" y="77" width="40" height="40" as="geometry" />
        </mxCell>
        <mxCell id="UqnrEGF3hzRNaSd5A-KL-26" value="&lt;font face=&quot;Times New Roman&quot;&gt;&lt;span style=&quot;font-size: 19px;&quot;&gt;C&lt;/span&gt;&lt;/font&gt;" style="ellipse;whiteSpace=wrap;html=1;aspect=fixed;fontFamily=Helvetica;fontSize=11;fontColor=default;" vertex="1" parent="1">
          <mxGeometry x="1200" y="147" width="40" height="40" as="geometry" />
        </mxCell>
        <mxCell id="UqnrEGF3hzRNaSd5A-KL-27" style="edgeStyle=none;shape=connector;rounded=0;orthogonalLoop=1;jettySize=auto;html=1;exitX=1;exitY=1;exitDx=0;exitDy=0;labelBackgroundColor=default;strokeColor=default;align=center;verticalAlign=middle;fontFamily=Helvetica;fontSize=11;fontColor=default;endArrow=none;endFill=0;" edge="1" parent="1" source="UqnrEGF3hzRNaSd5A-KL-25" target="UqnrEGF3hzRNaSd5A-KL-26">
          <mxGeometry relative="1" as="geometry" />
        </mxCell>
        <mxCell id="UqnrEGF3hzRNaSd5A-KL-28" value="&lt;font style=&quot;font-size: 23px;&quot;&gt;$$ \Bigg \{$$&lt;/font&gt;" style="text;html=1;strokeColor=none;fillColor=none;align=center;verticalAlign=middle;whiteSpace=wrap;rounded=0;fontSize=11;fontFamily=Helvetica;fontColor=default;" vertex="1" parent="1">
          <mxGeometry x="1028" y="172" width="60" height="30" as="geometry" />
        </mxCell>
        <mxCell id="UqnrEGF3hzRNaSd5A-KL-29" value="" style="group;fontFamily=Helvetica;fontSize=11;fontColor=default;" vertex="1" connectable="0" parent="1">
          <mxGeometry x="1069" y="147" width="40" height="120" as="geometry" />
        </mxCell>
        <mxCell id="UqnrEGF3hzRNaSd5A-KL-30" value="&lt;font style=&quot;font-size: 12px;&quot;&gt;$$B_L$$&lt;/font&gt;" style="rounded=0;whiteSpace=wrap;html=1;direction=west;fontFamily=Helvetica;fontSize=11;fontColor=default;" vertex="1" parent="UqnrEGF3hzRNaSd5A-KL-29">
          <mxGeometry width="40" height="80" as="geometry" />
        </mxCell>
        <mxCell id="UqnrEGF3hzRNaSd5A-KL-31" value="" style="group" vertex="1" connectable="0" parent="1">
          <mxGeometry x="1150" y="227" width="107" height="80" as="geometry" />
        </mxCell>
        <mxCell id="UqnrEGF3hzRNaSd5A-KL-32" value="&lt;font style=&quot;font-size: 19px;&quot; face=&quot;Times New Roman&quot;&gt;h-1&lt;/font&gt;" style="text;html=1;strokeColor=none;fillColor=none;align=center;verticalAlign=middle;whiteSpace=wrap;rounded=0;fontSize=11;fontFamily=Helvetica;fontColor=default;" vertex="1" parent="UqnrEGF3hzRNaSd5A-KL-31">
          <mxGeometry x="47" y="24" width="60" height="30" as="geometry" />
        </mxCell>
        <mxCell id="UqnrEGF3hzRNaSd5A-KL-33" value="" style="group" vertex="1" connectable="0" parent="UqnrEGF3hzRNaSd5A-KL-31">
          <mxGeometry width="81" height="80" as="geometry" />
        </mxCell>
        <mxCell id="UqnrEGF3hzRNaSd5A-KL-34" value="$$C_L$$" style="rounded=0;whiteSpace=wrap;html=1;" vertex="1" parent="UqnrEGF3hzRNaSd5A-KL-33">
          <mxGeometry width="40" height="80" as="geometry" />
        </mxCell>
        <mxCell id="UqnrEGF3hzRNaSd5A-KL-35" value="&lt;font style=&quot;font-size: 23px;&quot;&gt;$$ \Bigg \}$$&lt;/font&gt;" style="text;html=1;strokeColor=none;fillColor=none;align=center;verticalAlign=middle;whiteSpace=wrap;rounded=0;fontSize=11;fontFamily=Helvetica;fontColor=default;" vertex="1" parent="UqnrEGF3hzRNaSd5A-KL-33">
          <mxGeometry x="21" y="24" width="60" height="30" as="geometry" />
        </mxCell>
        <mxCell id="UqnrEGF3hzRNaSd5A-KL-36" style="edgeStyle=none;shape=connector;rounded=0;orthogonalLoop=1;jettySize=auto;html=1;exitX=0;exitY=1;exitDx=0;exitDy=0;entryX=0.5;entryY=0;entryDx=0;entryDy=0;labelBackgroundColor=default;strokeColor=default;align=center;verticalAlign=middle;fontFamily=Helvetica;fontSize=11;fontColor=default;endArrow=none;endFill=0;" edge="1" parent="1" source="UqnrEGF3hzRNaSd5A-KL-26" target="UqnrEGF3hzRNaSd5A-KL-34">
          <mxGeometry relative="1" as="geometry" />
        </mxCell>
        <mxCell id="UqnrEGF3hzRNaSd5A-KL-37" value="" style="group" vertex="1" connectable="0" parent="1">
          <mxGeometry x="1250" y="227" width="107" height="80" as="geometry" />
        </mxCell>
        <mxCell id="UqnrEGF3hzRNaSd5A-KL-38" value="&lt;font style=&quot;font-size: 19px;&quot; face=&quot;Times New Roman&quot;&gt;h-1&lt;/font&gt;" style="text;html=1;strokeColor=none;fillColor=none;align=center;verticalAlign=middle;whiteSpace=wrap;rounded=0;fontSize=11;fontFamily=Helvetica;fontColor=default;" vertex="1" parent="UqnrEGF3hzRNaSd5A-KL-37">
          <mxGeometry x="47" y="24" width="60" height="30" as="geometry" />
        </mxCell>
        <mxCell id="UqnrEGF3hzRNaSd5A-KL-39" value="" style="group" vertex="1" connectable="0" parent="UqnrEGF3hzRNaSd5A-KL-37">
          <mxGeometry width="81" height="80" as="geometry" />
        </mxCell>
        <mxCell id="UqnrEGF3hzRNaSd5A-KL-40" value="$$C_R$$" style="rounded=0;whiteSpace=wrap;html=1;" vertex="1" parent="UqnrEGF3hzRNaSd5A-KL-39">
          <mxGeometry width="40" height="80" as="geometry" />
        </mxCell>
        <mxCell id="UqnrEGF3hzRNaSd5A-KL-41" value="&lt;font style=&quot;font-size: 23px;&quot;&gt;$$ \Bigg \}$$&lt;/font&gt;" style="text;html=1;strokeColor=none;fillColor=none;align=center;verticalAlign=middle;whiteSpace=wrap;rounded=0;fontSize=11;fontFamily=Helvetica;fontColor=default;" vertex="1" parent="UqnrEGF3hzRNaSd5A-KL-39">
          <mxGeometry x="21" y="24" width="60" height="30" as="geometry" />
        </mxCell>
        <mxCell id="UqnrEGF3hzRNaSd5A-KL-42" style="edgeStyle=none;shape=connector;rounded=0;orthogonalLoop=1;jettySize=auto;html=1;exitX=1;exitY=1;exitDx=0;exitDy=0;entryX=0.5;entryY=0;entryDx=0;entryDy=0;labelBackgroundColor=default;strokeColor=default;align=center;verticalAlign=middle;fontFamily=Helvetica;fontSize=11;fontColor=default;endArrow=none;endFill=0;" edge="1" parent="1" source="UqnrEGF3hzRNaSd5A-KL-26" target="UqnrEGF3hzRNaSd5A-KL-40">
          <mxGeometry relative="1" as="geometry" />
        </mxCell>
        <mxCell id="UqnrEGF3hzRNaSd5A-KL-44" value="&lt;span style=&quot;font-size: 19px;&quot;&gt;&lt;font face=&quot;Times New Roman&quot;&gt;(a)&lt;/font&gt;&lt;/span&gt;" style="text;html=1;strokeColor=none;fillColor=none;align=center;verticalAlign=middle;whiteSpace=wrap;rounded=0;fontSize=11;fontFamily=Helvetica;fontColor=default;" vertex="1" parent="1">
          <mxGeometry x="1224" y="347" width="60" height="30" as="geometry" />
        </mxCell>
        <mxCell id="UqnrEGF3hzRNaSd5A-KL-45" value="&lt;font style=&quot;font-size: 19px;&quot; face=&quot;Times New Roman&quot;&gt;h-1&lt;/font&gt;" style="text;html=1;strokeColor=none;fillColor=none;align=center;verticalAlign=middle;whiteSpace=wrap;rounded=0;fontSize=11;fontFamily=Helvetica;fontColor=default;" vertex="1" parent="1">
          <mxGeometry x="1004" y="172" width="60" height="30" as="geometry" />
        </mxCell>
        <mxCell id="UqnrEGF3hzRNaSd5A-KL-49" style="edgeStyle=none;shape=connector;rounded=0;orthogonalLoop=1;jettySize=auto;html=1;exitX=0;exitY=0.5;exitDx=0;exitDy=0;entryX=1;entryY=0;entryDx=0;entryDy=0;labelBackgroundColor=default;strokeColor=default;align=center;verticalAlign=middle;fontFamily=Helvetica;fontSize=11;fontColor=default;endArrow=none;endFill=0;" edge="1" parent="1" source="UqnrEGF3hzRNaSd5A-KL-46" target="UqnrEGF3hzRNaSd5A-KL-25">
          <mxGeometry relative="1" as="geometry" />
        </mxCell>
        <mxCell id="UqnrEGF3hzRNaSd5A-KL-50" style="edgeStyle=none;shape=connector;rounded=0;orthogonalLoop=1;jettySize=auto;html=1;exitX=1;exitY=0.5;exitDx=0;exitDy=0;labelBackgroundColor=default;strokeColor=default;align=center;verticalAlign=middle;fontFamily=Helvetica;fontSize=11;fontColor=default;endArrow=none;endFill=0;" edge="1" parent="1" source="UqnrEGF3hzRNaSd5A-KL-46">
          <mxGeometry relative="1" as="geometry">
            <mxPoint x="1340" y="80" as="targetPoint" />
          </mxGeometry>
        </mxCell>
        <mxCell id="UqnrEGF3hzRNaSd5A-KL-46" value="A" style="ellipse;whiteSpace=wrap;html=1;fontFamily=Times New Roman;fontSize=19;" vertex="1" parent="1">
          <mxGeometry x="1234" y="30" width="40" height="40" as="geometry" />
        </mxCell>
        <mxCell id="UqnrEGF3hzRNaSd5A-KL-51" value="" style="group;fontFamily=Helvetica;fontSize=11;fontColor=default;" vertex="1" connectable="0" parent="1">
          <mxGeometry x="1320" y="80" width="107" height="80" as="geometry" />
        </mxCell>
        <mxCell id="UqnrEGF3hzRNaSd5A-KL-52" value="&lt;font style=&quot;font-size: 19px;&quot; face=&quot;Times New Roman&quot;&gt;h-1&lt;/font&gt;" style="text;html=1;strokeColor=none;fillColor=none;align=center;verticalAlign=middle;whiteSpace=wrap;rounded=0;fontSize=11;fontFamily=Helvetica;fontColor=default;" vertex="1" parent="UqnrEGF3hzRNaSd5A-KL-51">
          <mxGeometry x="47" y="24" width="60" height="30" as="geometry" />
        </mxCell>
        <mxCell id="UqnrEGF3hzRNaSd5A-KL-53" value="" style="group;fontFamily=Helvetica;fontSize=11;fontColor=default;" vertex="1" connectable="0" parent="UqnrEGF3hzRNaSd5A-KL-51">
          <mxGeometry width="81" height="80" as="geometry" />
        </mxCell>
        <mxCell id="UqnrEGF3hzRNaSd5A-KL-54" value="$$A_R$$" style="rounded=0;whiteSpace=wrap;html=1;fontFamily=Helvetica;fontSize=11;fontColor=default;" vertex="1" parent="UqnrEGF3hzRNaSd5A-KL-53">
          <mxGeometry width="40" height="80" as="geometry" />
        </mxCell>
        <mxCell id="UqnrEGF3hzRNaSd5A-KL-55" value="&lt;font style=&quot;font-size: 23px;&quot;&gt;$$ \Bigg \}$$&lt;/font&gt;" style="text;html=1;strokeColor=none;fillColor=none;align=center;verticalAlign=middle;whiteSpace=wrap;rounded=0;fontSize=11;fontFamily=Helvetica;fontColor=default;" vertex="1" parent="UqnrEGF3hzRNaSd5A-KL-53">
          <mxGeometry x="21" y="24" width="60" height="30" as="geometry" />
        </mxCell>
        <mxCell id="UqnrEGF3hzRNaSd5A-KL-88" value="" style="group" vertex="1" connectable="0" parent="1">
          <mxGeometry x="1490" y="30" width="493" height="347" as="geometry" />
        </mxCell>
        <mxCell id="UqnrEGF3hzRNaSd5A-KL-56" value="" style="group;flipH=0;" vertex="1" connectable="0" parent="UqnrEGF3hzRNaSd5A-KL-88">
          <mxGeometry y="47" width="352" height="300" as="geometry" />
        </mxCell>
        <mxCell id="UqnrEGF3hzRNaSd5A-KL-57" value="C" style="ellipse;whiteSpace=wrap;html=1;fontFamily=Times New Roman;fontSize=19;" vertex="1" parent="UqnrEGF3hzRNaSd5A-KL-56">
          <mxGeometry x="185" width="40" height="40" as="geometry" />
        </mxCell>
        <mxCell id="UqnrEGF3hzRNaSd5A-KL-58" value="B" style="ellipse;whiteSpace=wrap;html=1;fontFamily=Times New Roman;fontSize=19;" vertex="1" parent="UqnrEGF3hzRNaSd5A-KL-56">
          <mxGeometry x="115" y="70" width="40" height="40" as="geometry" />
        </mxCell>
        <mxCell id="UqnrEGF3hzRNaSd5A-KL-59" style="rounded=0;orthogonalLoop=1;jettySize=auto;html=1;exitX=0;exitY=1;exitDx=0;exitDy=0;endArrow=none;endFill=0;" edge="1" parent="UqnrEGF3hzRNaSd5A-KL-56" source="UqnrEGF3hzRNaSd5A-KL-57" target="UqnrEGF3hzRNaSd5A-KL-58">
          <mxGeometry relative="1" as="geometry" />
        </mxCell>
        <mxCell id="UqnrEGF3hzRNaSd5A-KL-60" value="" style="group" vertex="1" connectable="0" parent="UqnrEGF3hzRNaSd5A-KL-56">
          <mxGeometry y="150" width="105" height="120" as="geometry" />
        </mxCell>
        <mxCell id="UqnrEGF3hzRNaSd5A-KL-61" value="&lt;font style=&quot;font-size: 19px;&quot; face=&quot;Times New Roman&quot;&gt;h-1&lt;/font&gt;" style="text;html=1;strokeColor=none;fillColor=none;align=center;verticalAlign=middle;whiteSpace=wrap;rounded=0;fontSize=11;fontFamily=Helvetica;fontColor=default;" vertex="1" parent="UqnrEGF3hzRNaSd5A-KL-60">
          <mxGeometry y="25" width="60" height="30" as="geometry" />
        </mxCell>
        <mxCell id="UqnrEGF3hzRNaSd5A-KL-62" value="&lt;font style=&quot;font-size: 23px;&quot;&gt;$$ \Bigg \{$$&lt;/font&gt;" style="text;html=1;strokeColor=none;fillColor=none;align=center;verticalAlign=middle;whiteSpace=wrap;rounded=0;fontSize=11;fontFamily=Helvetica;fontColor=default;" vertex="1" parent="UqnrEGF3hzRNaSd5A-KL-60">
          <mxGeometry x="24" y="25" width="60" height="30" as="geometry" />
        </mxCell>
        <mxCell id="UqnrEGF3hzRNaSd5A-KL-63" value="" style="group" vertex="1" connectable="0" parent="UqnrEGF3hzRNaSd5A-KL-60">
          <mxGeometry x="65" width="40" height="120" as="geometry" />
        </mxCell>
        <mxCell id="UqnrEGF3hzRNaSd5A-KL-64" value="&lt;font style=&quot;font-size: 12px;&quot;&gt;$$B_L$$&lt;/font&gt;" style="rounded=0;whiteSpace=wrap;html=1;direction=west;" vertex="1" parent="UqnrEGF3hzRNaSd5A-KL-63">
          <mxGeometry width="40" height="80" as="geometry" />
        </mxCell>
        <mxCell id="UqnrEGF3hzRNaSd5A-KL-66" style="edgeStyle=none;shape=connector;rounded=0;orthogonalLoop=1;jettySize=auto;html=1;exitX=0;exitY=1;exitDx=0;exitDy=0;entryX=0.5;entryY=1;entryDx=0;entryDy=0;labelBackgroundColor=default;strokeColor=default;align=center;verticalAlign=middle;fontFamily=Helvetica;fontSize=11;fontColor=default;endArrow=none;endFill=0;" edge="1" parent="UqnrEGF3hzRNaSd5A-KL-56" source="UqnrEGF3hzRNaSd5A-KL-58" target="UqnrEGF3hzRNaSd5A-KL-64">
          <mxGeometry relative="1" as="geometry" />
        </mxCell>
        <mxCell id="UqnrEGF3hzRNaSd5A-KL-67" value="" style="group" vertex="1" connectable="0" parent="UqnrEGF3hzRNaSd5A-KL-56">
          <mxGeometry x="98" y="150" width="105" height="120" as="geometry" />
        </mxCell>
        <mxCell id="UqnrEGF3hzRNaSd5A-KL-68" value="&lt;font style=&quot;font-size: 19px;&quot; face=&quot;Times New Roman&quot;&gt;h-1&lt;/font&gt;" style="text;html=1;strokeColor=none;fillColor=none;align=center;verticalAlign=middle;whiteSpace=wrap;rounded=0;fontSize=11;fontFamily=Helvetica;fontColor=default;" vertex="1" parent="UqnrEGF3hzRNaSd5A-KL-67">
          <mxGeometry y="25" width="60" height="30" as="geometry" />
        </mxCell>
        <mxCell id="UqnrEGF3hzRNaSd5A-KL-69" value="&lt;font style=&quot;font-size: 23px;&quot;&gt;$$ \Bigg \{$$&lt;/font&gt;" style="text;html=1;strokeColor=none;fillColor=none;align=center;verticalAlign=middle;whiteSpace=wrap;rounded=0;fontSize=11;fontFamily=Helvetica;fontColor=default;" vertex="1" parent="UqnrEGF3hzRNaSd5A-KL-67">
          <mxGeometry x="24" y="25" width="60" height="30" as="geometry" />
        </mxCell>
        <mxCell id="UqnrEGF3hzRNaSd5A-KL-70" value="" style="group" vertex="1" connectable="0" parent="UqnrEGF3hzRNaSd5A-KL-67">
          <mxGeometry x="65" width="40" height="120" as="geometry" />
        </mxCell>
        <mxCell id="UqnrEGF3hzRNaSd5A-KL-71" value="&lt;font style=&quot;font-size: 12px;&quot;&gt;$$C_L$$&lt;/font&gt;" style="rounded=0;whiteSpace=wrap;html=1;direction=west;" vertex="1" parent="UqnrEGF3hzRNaSd5A-KL-70">
          <mxGeometry width="40" height="80" as="geometry" />
        </mxCell>
        <mxCell id="UqnrEGF3hzRNaSd5A-KL-72" style="edgeStyle=none;shape=connector;rounded=0;orthogonalLoop=1;jettySize=auto;html=1;exitX=1;exitY=1;exitDx=0;exitDy=0;entryX=0.5;entryY=1;entryDx=0;entryDy=0;labelBackgroundColor=default;strokeColor=default;align=center;verticalAlign=middle;fontFamily=Helvetica;fontSize=11;fontColor=default;endArrow=none;endFill=0;" edge="1" parent="UqnrEGF3hzRNaSd5A-KL-56" source="UqnrEGF3hzRNaSd5A-KL-58" target="UqnrEGF3hzRNaSd5A-KL-71">
          <mxGeometry relative="1" as="geometry" />
        </mxCell>
        <mxCell id="UqnrEGF3hzRNaSd5A-KL-73" value="" style="group" vertex="1" connectable="0" parent="UqnrEGF3hzRNaSd5A-KL-56">
          <mxGeometry x="245" y="70" width="107" height="80" as="geometry" />
        </mxCell>
        <mxCell id="UqnrEGF3hzRNaSd5A-KL-74" value="&lt;font style=&quot;font-size: 19px;&quot; face=&quot;Times New Roman&quot;&gt;h-1&lt;/font&gt;" style="text;html=1;strokeColor=none;fillColor=none;align=center;verticalAlign=middle;whiteSpace=wrap;rounded=0;fontSize=11;fontFamily=Helvetica;fontColor=default;" vertex="1" parent="UqnrEGF3hzRNaSd5A-KL-73">
          <mxGeometry x="47" y="24" width="60" height="30" as="geometry" />
        </mxCell>
        <mxCell id="UqnrEGF3hzRNaSd5A-KL-75" value="" style="group" vertex="1" connectable="0" parent="UqnrEGF3hzRNaSd5A-KL-73">
          <mxGeometry width="81" height="80" as="geometry" />
        </mxCell>
        <mxCell id="UqnrEGF3hzRNaSd5A-KL-76" value="$$C_R$$" style="rounded=0;whiteSpace=wrap;html=1;" vertex="1" parent="UqnrEGF3hzRNaSd5A-KL-75">
          <mxGeometry width="40" height="80" as="geometry" />
        </mxCell>
        <mxCell id="UqnrEGF3hzRNaSd5A-KL-77" value="&lt;font style=&quot;font-size: 23px;&quot;&gt;$$ \Bigg \}$$&lt;/font&gt;" style="text;html=1;strokeColor=none;fillColor=none;align=center;verticalAlign=middle;whiteSpace=wrap;rounded=0;fontSize=11;fontFamily=Helvetica;fontColor=default;" vertex="1" parent="UqnrEGF3hzRNaSd5A-KL-75">
          <mxGeometry x="21" y="24" width="60" height="30" as="geometry" />
        </mxCell>
        <mxCell id="UqnrEGF3hzRNaSd5A-KL-78" style="edgeStyle=none;shape=connector;rounded=0;orthogonalLoop=1;jettySize=auto;html=1;exitX=1;exitY=1;exitDx=0;exitDy=0;entryX=0.5;entryY=0;entryDx=0;entryDy=0;labelBackgroundColor=default;strokeColor=default;align=center;verticalAlign=middle;fontFamily=Helvetica;fontSize=11;fontColor=default;endArrow=none;endFill=0;" edge="1" parent="UqnrEGF3hzRNaSd5A-KL-56" source="UqnrEGF3hzRNaSd5A-KL-57" target="UqnrEGF3hzRNaSd5A-KL-76">
          <mxGeometry relative="1" as="geometry" />
        </mxCell>
        <mxCell id="UqnrEGF3hzRNaSd5A-KL-79" value="&lt;span style=&quot;font-size: 19px;&quot;&gt;&lt;font face=&quot;Times New Roman&quot;&gt;(b)&amp;nbsp;&lt;/font&gt;&lt;/span&gt;" style="text;html=1;strokeColor=none;fillColor=none;align=center;verticalAlign=middle;whiteSpace=wrap;rounded=0;fontSize=11;fontFamily=Helvetica;fontColor=default;" vertex="1" parent="UqnrEGF3hzRNaSd5A-KL-56">
          <mxGeometry x="282" y="270" width="60" height="30" as="geometry" />
        </mxCell>
        <mxCell id="UqnrEGF3hzRNaSd5A-KL-86" style="edgeStyle=none;shape=connector;rounded=0;orthogonalLoop=1;jettySize=auto;html=1;exitX=0;exitY=0.5;exitDx=0;exitDy=0;entryX=1;entryY=0;entryDx=0;entryDy=0;labelBackgroundColor=default;strokeColor=default;align=center;verticalAlign=middle;fontFamily=Helvetica;fontSize=11;fontColor=default;endArrow=none;endFill=0;" edge="1" parent="UqnrEGF3hzRNaSd5A-KL-88" source="UqnrEGF3hzRNaSd5A-KL-80" target="UqnrEGF3hzRNaSd5A-KL-57">
          <mxGeometry relative="1" as="geometry" />
        </mxCell>
        <mxCell id="UqnrEGF3hzRNaSd5A-KL-80" value="A" style="ellipse;whiteSpace=wrap;html=1;fontFamily=Times New Roman;fontSize=19;fontColor=default;" vertex="1" parent="UqnrEGF3hzRNaSd5A-KL-88">
          <mxGeometry x="290" width="40" height="40" as="geometry" />
        </mxCell>
        <mxCell id="UqnrEGF3hzRNaSd5A-KL-81" value="" style="group;fontFamily=Helvetica;fontSize=11;fontColor=default;" vertex="1" connectable="0" parent="UqnrEGF3hzRNaSd5A-KL-88">
          <mxGeometry x="386" y="50" width="107" height="80" as="geometry" />
        </mxCell>
        <mxCell id="UqnrEGF3hzRNaSd5A-KL-82" value="&lt;font style=&quot;font-size: 19px;&quot; face=&quot;Times New Roman&quot;&gt;h-1&lt;/font&gt;" style="text;html=1;strokeColor=none;fillColor=none;align=center;verticalAlign=middle;whiteSpace=wrap;rounded=0;fontSize=11;fontFamily=Helvetica;fontColor=default;" vertex="1" parent="UqnrEGF3hzRNaSd5A-KL-81">
          <mxGeometry x="47" y="24" width="60" height="30" as="geometry" />
        </mxCell>
        <mxCell id="UqnrEGF3hzRNaSd5A-KL-83" value="" style="group;fontFamily=Helvetica;fontSize=11;fontColor=default;" vertex="1" connectable="0" parent="UqnrEGF3hzRNaSd5A-KL-81">
          <mxGeometry width="81" height="80" as="geometry" />
        </mxCell>
        <mxCell id="UqnrEGF3hzRNaSd5A-KL-84" value="$$A_R$$" style="rounded=0;whiteSpace=wrap;html=1;fontFamily=Helvetica;fontSize=11;fontColor=default;" vertex="1" parent="UqnrEGF3hzRNaSd5A-KL-83">
          <mxGeometry width="40" height="80" as="geometry" />
        </mxCell>
        <mxCell id="UqnrEGF3hzRNaSd5A-KL-85" value="&lt;font style=&quot;font-size: 23px;&quot;&gt;$$ \Bigg \}$$&lt;/font&gt;" style="text;html=1;strokeColor=none;fillColor=none;align=center;verticalAlign=middle;whiteSpace=wrap;rounded=0;fontSize=11;fontFamily=Helvetica;fontColor=default;" vertex="1" parent="UqnrEGF3hzRNaSd5A-KL-83">
          <mxGeometry x="21" y="24" width="60" height="30" as="geometry" />
        </mxCell>
        <mxCell id="UqnrEGF3hzRNaSd5A-KL-87" style="edgeStyle=none;shape=connector;rounded=0;orthogonalLoop=1;jettySize=auto;html=1;exitX=1;exitY=0.5;exitDx=0;exitDy=0;entryX=0.5;entryY=0;entryDx=0;entryDy=0;labelBackgroundColor=default;strokeColor=default;align=center;verticalAlign=middle;fontFamily=Helvetica;fontSize=11;fontColor=default;endArrow=none;endFill=0;" edge="1" parent="UqnrEGF3hzRNaSd5A-KL-88" source="UqnrEGF3hzRNaSd5A-KL-80" target="UqnrEGF3hzRNaSd5A-KL-84">
          <mxGeometry relative="1" as="geometry" />
        </mxCell>
        <mxCell id="UqnrEGF3hzRNaSd5A-KL-89" value="B" style="ellipse;whiteSpace=wrap;html=1;fontFamily=Times New Roman;fontSize=19;" vertex="1" parent="1">
          <mxGeometry x="2177" y="147" width="40" height="40" as="geometry" />
        </mxCell>
        <mxCell id="UqnrEGF3hzRNaSd5A-KL-90" value="" style="group" vertex="1" connectable="0" parent="1">
          <mxGeometry x="2052" y="227" width="105" height="120" as="geometry" />
        </mxCell>
        <mxCell id="UqnrEGF3hzRNaSd5A-KL-91" value="&lt;font style=&quot;font-size: 19px;&quot; face=&quot;Times New Roman&quot;&gt;h-1&lt;/font&gt;" style="text;html=1;strokeColor=none;fillColor=none;align=center;verticalAlign=middle;whiteSpace=wrap;rounded=0;fontSize=11;fontFamily=Helvetica;fontColor=default;" vertex="1" parent="UqnrEGF3hzRNaSd5A-KL-90">
          <mxGeometry x="10" y="25" width="60" height="30" as="geometry" />
        </mxCell>
        <mxCell id="UqnrEGF3hzRNaSd5A-KL-92" value="&lt;font style=&quot;font-size: 23px;&quot;&gt;$$ \Bigg \{$$&lt;/font&gt;" style="text;html=1;strokeColor=none;fillColor=none;align=center;verticalAlign=middle;whiteSpace=wrap;rounded=0;fontSize=11;fontFamily=Helvetica;fontColor=default;" vertex="1" parent="UqnrEGF3hzRNaSd5A-KL-90">
          <mxGeometry x="34" y="25" width="60" height="30" as="geometry" />
        </mxCell>
        <mxCell id="UqnrEGF3hzRNaSd5A-KL-93" value="" style="group" vertex="1" connectable="0" parent="UqnrEGF3hzRNaSd5A-KL-90">
          <mxGeometry x="65" width="40" height="120" as="geometry" />
        </mxCell>
        <mxCell id="UqnrEGF3hzRNaSd5A-KL-94" value="&lt;font style=&quot;font-size: 12px;&quot;&gt;$$B_L$$&lt;/font&gt;" style="rounded=0;whiteSpace=wrap;html=1;direction=west;" vertex="1" parent="UqnrEGF3hzRNaSd5A-KL-93">
          <mxGeometry x="10" width="40" height="80" as="geometry" />
        </mxCell>
        <mxCell id="UqnrEGF3hzRNaSd5A-KL-95" style="edgeStyle=none;shape=connector;rounded=0;orthogonalLoop=1;jettySize=auto;html=1;exitX=0;exitY=1;exitDx=0;exitDy=0;entryX=0.5;entryY=1;entryDx=0;entryDy=0;labelBackgroundColor=default;strokeColor=default;align=center;verticalAlign=middle;fontFamily=Helvetica;fontSize=11;fontColor=default;endArrow=none;endFill=0;" edge="1" parent="1" source="UqnrEGF3hzRNaSd5A-KL-89" target="UqnrEGF3hzRNaSd5A-KL-94">
          <mxGeometry relative="1" as="geometry" />
        </mxCell>
        <mxCell id="UqnrEGF3hzRNaSd5A-KL-96" value="" style="group" vertex="1" connectable="0" parent="1">
          <mxGeometry x="2150" y="227" width="105" height="120" as="geometry" />
        </mxCell>
        <mxCell id="UqnrEGF3hzRNaSd5A-KL-97" value="&lt;font style=&quot;font-size: 19px;&quot; face=&quot;Times New Roman&quot;&gt;h-1&lt;/font&gt;" style="text;html=1;strokeColor=none;fillColor=none;align=center;verticalAlign=middle;whiteSpace=wrap;rounded=0;fontSize=11;fontFamily=Helvetica;fontColor=default;" vertex="1" parent="UqnrEGF3hzRNaSd5A-KL-96">
          <mxGeometry x="10" y="25" width="60" height="30" as="geometry" />
        </mxCell>
        <mxCell id="UqnrEGF3hzRNaSd5A-KL-98" value="&lt;font style=&quot;font-size: 23px;&quot;&gt;$$ \Bigg \{$$&lt;/font&gt;" style="text;html=1;strokeColor=none;fillColor=none;align=center;verticalAlign=middle;whiteSpace=wrap;rounded=0;fontSize=11;fontFamily=Helvetica;fontColor=default;" vertex="1" parent="UqnrEGF3hzRNaSd5A-KL-96">
          <mxGeometry x="34" y="25" width="60" height="30" as="geometry" />
        </mxCell>
        <mxCell id="UqnrEGF3hzRNaSd5A-KL-99" value="" style="group" vertex="1" connectable="0" parent="UqnrEGF3hzRNaSd5A-KL-96">
          <mxGeometry x="65" width="40" height="120" as="geometry" />
        </mxCell>
        <mxCell id="UqnrEGF3hzRNaSd5A-KL-100" value="&lt;font style=&quot;font-size: 12px;&quot;&gt;$$C_L$$&lt;/font&gt;" style="rounded=0;whiteSpace=wrap;html=1;direction=west;" vertex="1" parent="UqnrEGF3hzRNaSd5A-KL-99">
          <mxGeometry x="10" width="40" height="80" as="geometry" />
        </mxCell>
        <mxCell id="UqnrEGF3hzRNaSd5A-KL-101" style="edgeStyle=none;shape=connector;rounded=0;orthogonalLoop=1;jettySize=auto;html=1;exitX=1;exitY=1;exitDx=0;exitDy=0;entryX=0.5;entryY=1;entryDx=0;entryDy=0;labelBackgroundColor=default;strokeColor=default;align=center;verticalAlign=middle;fontFamily=Helvetica;fontSize=11;fontColor=default;endArrow=none;endFill=0;" edge="1" parent="1" source="UqnrEGF3hzRNaSd5A-KL-89" target="UqnrEGF3hzRNaSd5A-KL-100">
          <mxGeometry relative="1" as="geometry" />
        </mxCell>
        <mxCell id="UqnrEGF3hzRNaSd5A-KL-102" value="&lt;font face=&quot;Times New Roman&quot;&gt;&lt;span style=&quot;font-size: 19px;&quot;&gt;A&lt;/span&gt;&lt;/font&gt;" style="ellipse;whiteSpace=wrap;html=1;aspect=fixed;fontFamily=Helvetica;fontSize=11;fontColor=default;" vertex="1" parent="1">
          <mxGeometry x="2352" y="147" width="40" height="40" as="geometry" />
        </mxCell>
        <mxCell id="UqnrEGF3hzRNaSd5A-KL-103" value="" style="group" vertex="1" connectable="0" parent="1">
          <mxGeometry x="2302" y="227" width="107" height="80" as="geometry" />
        </mxCell>
        <mxCell id="UqnrEGF3hzRNaSd5A-KL-104" value="&lt;font style=&quot;font-size: 19px;&quot; face=&quot;Times New Roman&quot;&gt;h-1&lt;/font&gt;" style="text;html=1;strokeColor=none;fillColor=none;align=center;verticalAlign=middle;whiteSpace=wrap;rounded=0;fontSize=11;fontFamily=Helvetica;fontColor=default;" vertex="1" parent="UqnrEGF3hzRNaSd5A-KL-103">
          <mxGeometry x="47" y="24" width="60" height="30" as="geometry" />
        </mxCell>
        <mxCell id="UqnrEGF3hzRNaSd5A-KL-105" value="" style="group" vertex="1" connectable="0" parent="UqnrEGF3hzRNaSd5A-KL-103">
          <mxGeometry width="81" height="80" as="geometry" />
        </mxCell>
        <mxCell id="UqnrEGF3hzRNaSd5A-KL-106" value="$$C_R$$" style="rounded=0;whiteSpace=wrap;html=1;" vertex="1" parent="UqnrEGF3hzRNaSd5A-KL-105">
          <mxGeometry width="40" height="80" as="geometry" />
        </mxCell>
        <mxCell id="UqnrEGF3hzRNaSd5A-KL-107" value="&lt;font style=&quot;font-size: 23px;&quot;&gt;$$ \Bigg \}$$&lt;/font&gt;" style="text;html=1;strokeColor=none;fillColor=none;align=center;verticalAlign=middle;whiteSpace=wrap;rounded=0;fontSize=11;fontFamily=Helvetica;fontColor=default;" vertex="1" parent="UqnrEGF3hzRNaSd5A-KL-105">
          <mxGeometry x="21" y="24" width="60" height="30" as="geometry" />
        </mxCell>
        <mxCell id="UqnrEGF3hzRNaSd5A-KL-108" style="edgeStyle=none;shape=connector;rounded=0;orthogonalLoop=1;jettySize=auto;html=1;exitX=0;exitY=1;exitDx=0;exitDy=0;entryX=0.5;entryY=0;entryDx=0;entryDy=0;labelBackgroundColor=default;strokeColor=default;align=center;verticalAlign=middle;fontFamily=Helvetica;fontSize=11;fontColor=default;endArrow=none;endFill=0;" edge="1" parent="1" source="UqnrEGF3hzRNaSd5A-KL-102" target="UqnrEGF3hzRNaSd5A-KL-106">
          <mxGeometry relative="1" as="geometry" />
        </mxCell>
        <mxCell id="UqnrEGF3hzRNaSd5A-KL-109" value="" style="group" vertex="1" connectable="0" parent="1">
          <mxGeometry x="2402" y="227" width="107" height="80" as="geometry" />
        </mxCell>
        <mxCell id="UqnrEGF3hzRNaSd5A-KL-110" value="&lt;font style=&quot;font-size: 19px;&quot; face=&quot;Times New Roman&quot;&gt;h-1&lt;/font&gt;" style="text;html=1;strokeColor=none;fillColor=none;align=center;verticalAlign=middle;whiteSpace=wrap;rounded=0;fontSize=11;fontFamily=Helvetica;fontColor=default;" vertex="1" parent="UqnrEGF3hzRNaSd5A-KL-109">
          <mxGeometry x="47" y="24" width="60" height="30" as="geometry" />
        </mxCell>
        <mxCell id="UqnrEGF3hzRNaSd5A-KL-111" value="" style="group" vertex="1" connectable="0" parent="UqnrEGF3hzRNaSd5A-KL-109">
          <mxGeometry width="81" height="80" as="geometry" />
        </mxCell>
        <mxCell id="UqnrEGF3hzRNaSd5A-KL-112" value="$$A_R$$" style="rounded=0;whiteSpace=wrap;html=1;" vertex="1" parent="UqnrEGF3hzRNaSd5A-KL-111">
          <mxGeometry width="40" height="80" as="geometry" />
        </mxCell>
        <mxCell id="UqnrEGF3hzRNaSd5A-KL-113" value="&lt;font style=&quot;font-size: 23px;&quot;&gt;$$ \Bigg \}$$&lt;/font&gt;" style="text;html=1;strokeColor=none;fillColor=none;align=center;verticalAlign=middle;whiteSpace=wrap;rounded=0;fontSize=11;fontFamily=Helvetica;fontColor=default;" vertex="1" parent="UqnrEGF3hzRNaSd5A-KL-111">
          <mxGeometry x="21" y="24" width="60" height="30" as="geometry" />
        </mxCell>
        <mxCell id="UqnrEGF3hzRNaSd5A-KL-114" style="edgeStyle=none;shape=connector;rounded=0;orthogonalLoop=1;jettySize=auto;html=1;exitX=1;exitY=1;exitDx=0;exitDy=0;entryX=0.5;entryY=0;entryDx=0;entryDy=0;labelBackgroundColor=default;strokeColor=default;align=center;verticalAlign=middle;fontFamily=Helvetica;fontSize=11;fontColor=default;endArrow=none;endFill=0;" edge="1" parent="1" source="UqnrEGF3hzRNaSd5A-KL-102" target="UqnrEGF3hzRNaSd5A-KL-112">
          <mxGeometry relative="1" as="geometry" />
        </mxCell>
        <mxCell id="UqnrEGF3hzRNaSd5A-KL-116" style="edgeStyle=none;shape=connector;rounded=0;orthogonalLoop=1;jettySize=auto;html=1;exitX=0;exitY=1;exitDx=0;exitDy=0;entryX=1;entryY=0;entryDx=0;entryDy=0;labelBackgroundColor=default;strokeColor=default;align=center;verticalAlign=middle;fontFamily=Helvetica;fontSize=11;fontColor=default;endArrow=none;endFill=0;" edge="1" parent="1" source="UqnrEGF3hzRNaSd5A-KL-115" target="UqnrEGF3hzRNaSd5A-KL-89">
          <mxGeometry relative="1" as="geometry" />
        </mxCell>
        <mxCell id="UqnrEGF3hzRNaSd5A-KL-117" style="edgeStyle=none;shape=connector;rounded=0;orthogonalLoop=1;jettySize=auto;html=1;exitX=1;exitY=1;exitDx=0;exitDy=0;entryX=0;entryY=0;entryDx=0;entryDy=0;labelBackgroundColor=default;strokeColor=default;align=center;verticalAlign=middle;fontFamily=Helvetica;fontSize=11;fontColor=default;endArrow=none;endFill=0;" edge="1" parent="1" source="UqnrEGF3hzRNaSd5A-KL-115" target="UqnrEGF3hzRNaSd5A-KL-102">
          <mxGeometry relative="1" as="geometry" />
        </mxCell>
        <mxCell id="UqnrEGF3hzRNaSd5A-KL-115" value="C" style="ellipse;whiteSpace=wrap;html=1;fontFamily=Times New Roman;fontSize=19;fontColor=default;" vertex="1" parent="1">
          <mxGeometry x="2264" y="99" width="40" height="40" as="geometry" />
        </mxCell>
        <mxCell id="UqnrEGF3hzRNaSd5A-KL-118" value="&lt;span style=&quot;font-size: 19px;&quot;&gt;&lt;font face=&quot;Times New Roman&quot;&gt;(c)&amp;nbsp;&lt;/font&gt;&lt;/span&gt;" style="text;html=1;strokeColor=none;fillColor=none;align=center;verticalAlign=middle;whiteSpace=wrap;rounded=0;fontSize=11;fontFamily=Helvetica;fontColor=default;" vertex="1" parent="1">
          <mxGeometry x="2260" y="347" width="60" height="30" as="geometry" />
        </mxCell>
      </root>
    </mxGraphModel>
  </diagram>
</mxfile>
